<svg width="24" height="24" viewBox="0 0 24 24" fill="none" xmlns="http://www.w3.org/2000/svg">
<g opacity="0.4" clip-path="url(#clip0_42_13939)">
<path d="M3.40726 12.1328C3.40724 12.6851 3.85496 13.1329 4.40726 13.1329H5.46976C6.02203 13.1329 6.46974 12.6852 6.46976 12.1329L6.46977 11.9631C6.46979 11.4108 6.02207 10.963 5.46977 10.963H4.40727C3.855 10.963 3.40729 11.4107 3.40727 11.963L3.40726 12.1328ZM3.40731 17.1301C3.40731 17.6824 3.85502 18.1301 4.40731 18.1301H5.46981C6.02209 18.1301 6.46981 17.6824 6.46981 17.1301V16.8507C6.46981 16.2984 6.02209 15.8507 5.46981 15.8507H4.40731C3.85502 15.8507 3.40731 16.2984 3.40731 16.8507V17.1301ZM3.40731 7.06987C3.40731 7.62215 3.85502 8.06987 4.40731 8.06987H5.46981C6.02209 8.06987 6.46981 7.62215 6.46981 7.06987V6.98767C6.46981 6.43539 6.02209 5.98767 5.46981 5.98767H4.40731C3.85502 5.98767 3.40731 6.43539 3.40731 6.98767V7.06987ZM8.00004 12.1328C8.00002 12.6851 8.44774 13.1329 9.00004 13.1329H20C20.5523 13.1329 21 12.6852 21 12.1329L21 11.9631C21.0001 11.4108 20.5523 10.963 20 10.963H9.00004C8.44777 10.963 8.00006 11.4107 8.00004 11.963L8.00004 12.1328ZM8.00008 17.1301C8.00008 17.6824 8.4478 18.1301 9.00008 18.1301H20.0001C20.5524 18.1301 21.0001 17.6824 21.0001 17.1301L21.0001 16.8507C21.0001 16.2984 20.5524 15.8507 20.0001 15.8507H9.00008C8.4478 15.8507 8.00008 16.2984 8.00008 16.8507V17.1301ZM9.00008 5.98767C8.4478 5.98767 8.00008 6.43539 8.00008 6.98767L8.00008 7.06987C8.00008 7.62215 8.4478 8.06987 9.00008 8.06987H20.0001C20.5524 8.06987 21.0001 7.62216 21.0001 7.06987L21.0001 6.98767C21.0001 6.43539 20.5524 5.98767 20.0001 5.98767H9.00008Z" fill="white"/>
</g>
<defs>
<clipPath id="clip0_42_13939">
<rect width="24" height="24" fill="white"/>
</clipPath>
</defs>
</svg>
